<svg width="46" height="32" viewBox="0 0 46 32" fill="none" xmlns="http://www.w3.org/2000/svg">
<path d="M34.9457 21.2617L29.5024 15.8185L34.9457 10.3752L32.1102 7.53977L26.6669 12.9831L21.2236 7.53977L18.3881 10.3752L23.8314 15.8185L18.3881 21.2617L21.2236 24.0973L26.6669 18.654L32.1101 24.0973L34.9457 21.2617ZM2.48967 19.7065L12.3319 29.5487C13.5456 30.7624 14.5702 31.2143 16.7696 31.2143H39.8633C42.9 31.2143 45.3618 28.7526 45.3618 25.7158V5.92123C45.3618 2.88452 42.9 0.422729 39.8633 0.422729H16.7696C14.5702 0.422729 13.5456 0.875036 12.3319 2.08867L2.48967 11.9305C0.342392 14.0778 0.342392 17.5593 2.48967 19.7065ZM16.7696 27.9152C15.6699 27.9152 15.2353 27.7864 14.6648 27.2159L4.82257 17.3737C3.96359 16.5149 3.96359 15.1223 4.82257 14.2633L14.6648 4.42146C15.2353 3.85105 15.6699 3.72183 16.7696 3.72194H39.8633C41.078 3.72194 42.0627 4.70661 42.0627 5.92134V25.7159C42.0627 26.9306 41.078 27.9153 39.8633 27.9153L16.7696 27.9152Z" fill="white"/>
</svg>
